# xmcd
#
# Track frame offsets:
#	150
#	20570
#	41332
#	57842
#	79347
#	101435
#	119432
#	136812
#	157220
#	180330
#	205447
#
# Disc length: 3068 seconds
#
# Revision: 1
# Processed by: cddbd v1.5.1PL0 Copyright (c) Steve Scherf et al.
# Submitted via: CDex 1.50Beta5
#
DISCID=910bfa0b
DTITLE=三戸華之介 - 1000年ビート
DYEAR=1993
DGENRE=Rock
TTITLE0=ようこそ見世物小屋へ
TTITLE1=グライダー、虹へ
TTITLE2=気弱な水夫達
TTITLE3=知られざる天文台
TTITLE4=蜂工場
TTITLE5=幻惑されて
TTITLE6=ほたる
TTITLE7=天国羊
TTITLE8=千年ビート
TTITLE9=灼熱の世代
TTITLE10=電波塔の丘から
EXTD=
EXTT0=
EXTT1=
EXTT2=
EXTT3=
EXTT4=
EXTT5=
EXTT6=
EXTT7=
EXTT8=
EXTT9=
EXTT10=
PLAYORDER=
